<svg id="Page-1" xmlns="http://www.w3.org/2000/svg" width="13.902" height="16.025" viewBox="0 0 13.902 16.025">
  <g id="TWITTER-PROFILE-2018" transform="translate(-132 -692)">
    <g id="Profile" transform="translate(0 341)">
      <g id="Quick-informations" transform="translate(129 350)">
        <g id="Place" transform="translate(3)">
          <g id="Group" transform="translate(0 1)">
            <path id="Shape" d="M7,0A6.957,6.957,0,0,0,0,7a6.722,6.722,0,0,0,2.1,5c.1.1,4.1,3.7,4.2,3.8a1.049,1.049,0,0,0,1.3,0c.1-.1,4.2-3.7,4.2-3.8a6.722,6.722,0,0,0,2.1-5A6.812,6.812,0,0,0,7,0Zm3.4,10.6h0L7,13.6l-3.4-3h0A4.841,4.841,0,0,1,2,7,4.951,4.951,0,0,1,7,2a4.951,4.951,0,0,1,5,5A4.841,4.841,0,0,1,10.4,10.6Z" fill="#7159c1"/>
            <circle id="Oval-3" cx="2" cy="2" r="2" transform="translate(5 5)" fill="#7159c1"/>
          </g>
        </g>
      </g>
    </g>
  </g>
</svg>
