<svg xmlns="http://www.w3.org/2000/svg" width="22.936" height="21.31" viewBox="0 0 22.936 21.31">
  <g id="Page-1" transform="translate(0.007 -0.5)">
    <g id="TWITTER-PROFILE-2018" transform="translate(-127 -12)">
      <g id="Header">
        <g id="Left-side" transform="translate(128 8)">
          <g id="Home" transform="translate(0 5)">
            <path id="icon" d="M10.46.5C9.616.5.119,9.063.025,10.344a.824.824,0,0,0,1.288.924,10.363,10.363,0,0,1,1.64-.539s1.4,6.787,2.26,8.542c1.219.719,9.094.719,10.312,0,1.157-.854,2.532-8.562,2.532-8.562a12.434,12.434,0,0,1,1.368.559A.948.948,0,0,0,20.9,10.3C20.4,8.875,11.3.5,10.46.5ZM8.213,9.188a2.248,2.248,0,1,1,2.248,2.248A2.248,2.248,0,0,1,8.213,9.188Z" fill="none" stroke="#7159c1" stroke-width="2" fill-rule="evenodd"/>
          </g>
        </g>
      </g>
    </g>
  </g>
</svg>
