<svg xmlns="http://www.w3.org/2000/svg" width="17.121" height="16.5" viewBox="0 0 17.121 16.5">
  <g id="Page-1" transform="translate(-0.439 -0.75)">
    <g id="TWITTER-PROFILE-2018" transform="translate(-128 -963)">
      <g id="Profile" transform="translate(0 341)">
        <g id="Followers" transform="translate(128 622)">
          <g id="image-02" transform="translate(1 1)">
            <path id="Shape" d="M.5,12.5l4-4,3,3,4-5,4,4" fill="none" stroke="#7159c1" stroke-linecap="round" stroke-linejoin="round" stroke-width="1.5" fill-rule="evenodd"/>
            <path id="Shape-2" data-name="Shape" d="M14.5,15.5H1.5a1,1,0,0,1-1-1V1.5a1,1,0,0,1,1-1h13a1,1,0,0,1,1,1v13A1,1,0,0,1,14.5,15.5Z" fill="none" stroke="#7159c1" stroke-linecap="round" stroke-linejoin="round" stroke-width="1.5" fill-rule="evenodd"/>
            <circle id="Oval" cx="1.5" cy="1.5" r="1.5" transform="translate(5 3)" fill="#7159c1"/>
          </g>
        </g>
      </g>
    </g>
  </g>
</svg>
