<svg xmlns="http://www.w3.org/2000/svg" width="14.018" height="15.32" viewBox="0 0 14.018 15.32">
  <g id="Page-1" transform="translate(-0.254 -0.234)">
    <g id="TWITTER-PROFILE-2018" transform="translate(-130 -716)">
      <g id="Profile" transform="translate(0 341)">
        <g id="Quick-informations" transform="translate(129 350)">
          <g id="Website" transform="translate(1 23)">
            <path id="icon" d="M6.147,12.5l-2.12-2.121a2.274,2.274,0,0,1,0-3.215L8.3,2.89a2.37,2.37,0,0,1,3.274,0L13.6,4.912a2.3,2.3,0,0,1,0,3.259L12.332,9.436,10.918,8.023l1.265-1.266a.3.3,0,0,0,.089-.215.306.306,0,0,0-.089-.216L10.16,4.3a.266.266,0,0,0-.445,0L5.441,8.577a.275.275,0,0,0,0,.387l2.121,2.121ZM2.952,16.876.929,14.854a2.3,2.3,0,0,1,0-3.259L2.194,10.33l1.414,1.414L2.343,13.009a.306.306,0,0,0-.089.216.3.3,0,0,0,.089.215l2.023,2.022a.266.266,0,0,0,.445,0l4.274-4.273a.275.275,0,0,0,0-.387L6.965,8.682,8.379,7.268,10.5,9.388a2.273,2.273,0,0,1,0,3.214L6.226,16.876a2.315,2.315,0,0,1-3.274,0Z" fill="#7159c1" fill-rule="evenodd"/>
          </g>
        </g>
      </g>
    </g>
  </g>
</svg>
