<svg xmlns="http://www.w3.org/2000/svg" width="17.5" height="16.818" viewBox="0 0 17.5 16.818">
  <g id="Page-1" transform="translate(-0.25 -0.205)">
    <g id="TWITTER-PROFILE-2018" transform="translate(-128 -764)">
      <g id="Profile" transform="translate(0 341)">
        <g id="Quick-informations" transform="translate(129 350)">
          <g id="Sign-up" transform="translate(0 74)">
            <g id="child">
              <circle id="Oval" cx="1.091" cy="1.091" r="1.091" transform="translate(4.364 8.727)" fill="#7159c1"/>
              <circle id="Oval-2" data-name="Oval" cx="1.091" cy="1.091" r="1.091" transform="translate(9.455 8.727)" fill="#7159c1"/>
              <path id="Shape" d="M16,8.727a2.177,2.177,0,0,0-1.822-2.145,6.537,6.537,0,0,0-12.356,0,2.174,2.174,0,0,0,0,4.291,6.537,6.537,0,0,0,12.356,0A2.177,2.177,0,0,0,16,8.727Z" fill="none" stroke="#7159c1" stroke-linecap="round" stroke-linejoin="round" stroke-width="1.5" fill-rule="evenodd"/>
              <path id="Shape-2" data-name="Shape" d="M8,4.364C7.818,1.758,9.212.151,11.636,0" fill="none" stroke="#7159c1" stroke-linecap="round" stroke-linejoin="round" stroke-width="1.5" fill-rule="evenodd"/>
            </g>
          </g>
        </g>
      </g>
    </g>
  </g>
</svg>
