<svg id="Page-1" xmlns="http://www.w3.org/2000/svg" width="16" height="16" viewBox="0 0 16 16">
  <g id="TWITTER-PROFILE-2018" transform="translate(-129 -740)">
    <g id="Profile" transform="translate(0 341)">
      <g id="Quick-informations" transform="translate(129 350)">
        <g id="Sign-up" transform="translate(0 49)">
          <path id="icon" d="M8.568,6.952h2.172a.8.8,0,1,1,0,1.594H7.851a.8.8,0,0,1-.8-.8q0-.014,0-.028V3.763a.76.76,0,1,1,1.519,0ZM8,16a8,8,0,1,1,8-8A8,8,0,0,1,8,16Zm0-1.5A6.5,6.5,0,1,0,1.5,8,6.5,6.5,0,0,0,8,14.5Z" fill="#7159c1" fill-rule="evenodd"/>
        </g>
      </g>
    </g>
  </g>
</svg>
